<svg width="30" height="30" viewBox="0 0 30 30" fill="none" xmlns="http://www.w3.org/2000/svg">
<g clip-path="url(#clip0_1_2)">
<path d="M15.0496 0C6.72216 0 0 6.89643 0 15.392C0 22.1885 4.31422 27.9855 10.3341 29.9845C11.1367 30.0844 11.3374 29.6846 11.3374 29.2848C11.3374 28.885 11.3374 27.9855 11.3374 26.6862C7.12348 27.5857 6.22051 24.5873 6.22051 24.5873C5.51819 22.7882 4.51488 22.2885 4.51488 22.2885C3.11025 21.289 4.61521 21.3889 4.61521 21.3889C6.12017 21.4889 6.92282 22.9881 6.92282 22.9881C8.22712 25.3868 10.4344 24.6872 11.3374 24.2874C11.4377 23.2879 11.839 22.5883 12.2403 22.1885C8.92944 21.7887 5.41786 20.4894 5.41786 14.5924C5.41786 12.8933 6.01984 11.494 6.92282 10.4946C6.72216 10.0948 6.2205 8.4956 7.02315 6.39669C7.02315 6.39669 8.32745 5.99689 11.1367 7.99586C12.3407 7.69601 13.645 7.49612 14.9493 7.49612C16.2536 7.49612 17.5579 7.69601 18.7618 7.99586C21.5711 5.99689 22.8754 6.39669 22.8754 6.39669C23.6781 8.4956 23.1764 10.0948 22.9757 10.4946C23.979 11.594 24.4807 12.8933 24.4807 14.5924C24.4807 20.4894 20.9691 21.7887 17.6582 22.1885C18.1599 22.6882 18.6615 23.5878 18.6615 24.9871C18.6615 27.086 18.6615 28.6851 18.6615 29.1849C18.6615 29.5847 18.9625 30.0844 19.6648 29.8845C25.6847 27.8856 29.9989 22.0886 29.9989 15.2921C30.0992 6.89643 23.3771 0 15.0496 0Z" fill="white"/>
</g>
<defs>
<clipPath id="clip0_1_2">
<rect width="30" height="30" fill="white"/>
</clipPath>
</defs>
</svg>
