<?xml version="1.0" encoding="utf-8"?>
<!-- Generator: Adobe Illustrator 27.2.0, SVG Export Plug-In . SVG Version: 6.00 Build 0)  -->
<svg version="1.1" id="Слой_1" xmlns="http://www.w3.org/2000/svg" xmlns:xlink="http://www.w3.org/1999/xlink" x="0px" y="0px"
	 viewBox="0 0 25 21" style="enable-background:new 0 0 25 21;" xml:space="preserve">
<path d="M23.3,0H1.6C1.2,0,0.9,0.2,0.5,0.5S0,1.2,0,1.6v13.9c0,0.3,0.2,0.9,0.5,1.2c0.2,0.3,0.7,0.5,1.1,0.5h8.2l-0.5,1.6H8.1
	c-0.1,0-0.2,0-0.2,0.1c-0.1,0.1-0.1,0.2-0.1,0.2V20H4c-0.1,0-0.2,0-0.2,0.1c-0.1,0.1-0.1,0.2-0.1,0.3c0,0.1,0,0.2,0.1,0.3
	C3.9,21,4,21,4,21h17.7c0.1,0,0.2,0,0.2-0.1s0.1-0.2,0.1-0.3s0-0.2-0.1-0.3c-0.1-0.1-0.2-0.1-0.2-0.1h-4.4v-0.8c0-0.1,0-0.2-0.1-0.3
	c-0.1-0.1-0.2-0.1-0.2-0.1h-1.2l-0.5-1.6h8.2c0.4,0,0.7-0.2,1.1-0.5c0.2-0.3,0.5-0.7,0.5-1.2V1.7c0-0.3-0.2-0.9-0.5-1.2
	C24.1,0.2,23.6,0,23.3,0z M16.4,19.7v0.3h-8v-0.3H16.4z M10.2,18.8l0.5-1.6h3.5l0.5,1.6H10.2z M24.1,15.5c0,0.2-0.1,0.3-0.2,0.6
	c-0.2,0.2-0.4,0.2-0.6,0.2H1.6c-0.2,0-0.4-0.1-0.6-0.2c-0.2-0.2-0.2-0.3-0.2-0.6v-0.8H24C24.1,14.7,24.1,15.5,24.1,15.5z M6.7,10.2
	l-0.1,3.7H6.2L6,10.2H6.7z M6.1,9.4l0.2-1.6h0.1l0.2,1.6H6.1z M6.5,7C6,7,5.6,6.4,5.6,5.8c0-0.3,0.4-1,0.7-1.5
	c0.4,0.3,0.9,0.9,0.9,1.5S6.8,7,6.5,7z M10.7,6.1L10.7,6.1v0.3H9.2V6.3V6.1H10.7z M9.7,5.3l0.4-0.7l0.4,0.7H9.7z M10.8,7.3v6.5
	c0,0,0,0,0,0.1H9.2c0,0,0,0,0-0.1V7.3H10.8z M14.4,5.8h1.2v0.8h-0.4c-0.1,0-0.2,0-0.2,0.1c0,0.1-0.1,0.2-0.1,0.3
	c0,0.1,0,0.2,0.1,0.3c0.1,0.1,0.2,0.1,0.2,0.1h0.4v0.8h-1.2c-0.1,0-0.2,0-0.2,0.1c-0.1,0.1-0.1,0.2-0.1,0.3c0,0.1,0,0.2,0.1,0.3
	c0.1,0.1,0.2,0.1,0.2,0.1h1.2v0.8h-0.4c-0.1,0-0.2,0-0.2,0.1c0,0.1-0.1,0.2-0.1,0.3c0,0.1,0,0.2,0.1,0.3c0.1,0.1,0.2,0.1,0.2,0.1
	h0.4v0.8h-1.2c-0.1,0-0.2,0-0.2,0.1c-0.1,0.1-0.1,0.2-0.1,0.3c0,0.1,0,0.2,0.1,0.3c0-0.5,0.1-0.5,0.2-0.5h1.2v1.7h-2.7V4.1h2.7v0.8
	h-1.2c-0.1,0-0.2,0-0.2,0.1c-0.1,0.1-0.1,0.2-0.1,0.2s0,0.2,0.1,0.3C14.2,5.7,14.3,5.8,14.4,5.8z M19.3,10.7v3.1c0,0,0,0,0,0.1h-1.6
	c0,0,0,0,0-0.1v-3.1H19.3z M17.7,9.9V9.5l0.7-1.6l0.7,1.6v0.3C19.2,9.9,17.7,9.9,17.7,9.9z M24.1,13.9h-4c0,0,0,0,0-0.1V9.4
	c0-0.1,0-0.1,0-0.2l-1.2-2.4c0-0.1-0.1-0.1-0.1-0.2c-0.1,0-0.1-0.1-0.2-0.1s-0.1,0-0.2,0.1c-0.1,0-0.1,0.1-0.1,0.2l-1.4,2.4
	c0,0.1,0,0.1,0,0.2v4.5c0,0,0,0,0,0.1h-0.4V3.7c0-0.1,0-0.2-0.1-0.3C16.2,3.2,16,3.2,16,3.2h-3.6c-0.1,0-0.2,0-0.2,0.1
	c-0.1,0.1-0.1,0.2-0.1,0.3v10.2h-0.4c0,0,0,0,0-0.1V6.1c0-0.1,0-0.1,0-0.2l-1.2-2.4c0-0.1-0.1-0.1-0.1-0.2c-0.1,0-0.1-0.1-0.2-0.1
	s-0.1,0-0.2,0.1c-0.1,0-0.1,0.1-0.1,0.2L8.5,5.9c0,0.1,0,0.1,0,0.2v7.8c0,0,0,0,0,0.1h-1L7.7,10l0,0l0,0l0,0l0,0L7.2,7.4
	c0.5-0.3,0.9-0.9,0.9-1.7c0-1-1.2-2.2-1.2-2.4c-0.1,0-0.2,0-0.2,0c-0.1,0-0.2,0-0.2,0.1C6,3.5,4.7,4.6,4.7,5.8
	c0,0.7,0.4,1.4,0.9,1.7L5.2,9.7l0,0l0,0l0,0l0,0l0.2,4.2H0.7V1.6C0.7,1.4,0.9,1.3,1,1c0.2-0.2,0.4-0.2,0.6-0.2h21.6
	c0.2,0,0.4,0.1,0.6,0.2c0.2,0.2,0.2,0.3,0.2,0.6V13.9z"/>
<path d="M4.4,15.1H2c-0.1,0-0.2,0-0.2,0.1c-0.1,0.1-0.1,0.2-0.1,0.3c0,0.1,0,0.2,0.1,0.3C1.9,16,2,16.1,2,16.1h2.4
	c0.1,0,0.2,0,0.2-0.1c0.1-0.2,0.1-0.3,0.1-0.3s0-0.2-0.1-0.3C4.6,15.2,4.5,15.1,4.4,15.1z"/>
<path d="M6,15.1H5.6c-0.1,0-0.2,0-0.2,0.1c-0.1,0.1-0.1,0.2-0.1,0.3c0,0.1,0,0.2,0.1,0.3C5.5,16,5.6,16,5.6,16H6
	c0.1,0,0.2,0,0.2-0.1c0.1-0.2,0.1-0.2,0.1-0.3c0-0.1,0-0.2-0.1-0.3C6.2,15.2,6.2,15.1,6,15.1z"/>
<path d="M10.1,7.8c-0.1,0-0.2,0-0.2,0.1C9.7,8,9.7,8.1,9.7,8.2v4.5c0,0.1,0,0.2,0.1,0.3c0.1,0.1,0.2,0.1,0.2,0.1
	c0.1,0,0.2,0,0.2-0.1c0.1-0.1,0.1-0.2,0.1-0.3V8.1c0-0.1,0-0.2-0.1-0.3C10.2,7.8,10.2,7.8,10.1,7.8z"/>
<path d="M18.4,11c-0.1,0-0.2,0-0.2,0.1C18,11.3,18,11.4,18,11.5v1.2c0,0.1,0,0.2,0.1,0.3c0.1,0.1,0.2,0.1,0.2,0.1
	c0.1,0,0.2,0,0.2-0.1c0.1-0.1,0.1-0.2,0.1-0.3v-1.2c0-0.1,0-0.2-0.1-0.3C18.7,11,18.7,11,18.4,11z"/>
<path d="M2,2.4h3.2c0.1,0,0.2,0,0.2-0.1c0.1,0,0.1-0.1,0.1-0.2c0-0.1,0-0.2-0.1-0.3c0-0.1-0.2-0.2-0.2-0.2H2
	C1.9,1.6,1.7,1.6,1.7,1.7S1.6,2,1.6,2.1c0,0.1,0,0.2,0.1,0.3C1.7,2.4,1.9,2.4,2,2.4z"/>
<path d="M2,3.7h0.7c0.1,0,0.2,0,0.2-0.1c0-0.1,0.1-0.2,0.1-0.3c0-0.1,0-0.2-0.1-0.3c-0.1-0.1-0.1,0-0.2,0H2c-0.1,0-0.2,0-0.2,0.1
	c0,0.1-0.1,0.2-0.1,0.3s0,0.2,0.1,0.3C1.7,3.7,1.9,3.7,2,3.7z"/>
<path d="M21.3,13.1h1.6c0.1,0,0.2,0,0.2-0.1c0.1-0.1,0.1-0.2,0.1-0.3c0-0.1,0-0.2-0.1-0.3c-0.1-0.1-0.2-0.1-0.2-0.1h-1.6
	c-0.1,0-0.2,0-0.2,0.1c-0.1,0.1-0.1,0.2-0.1,0.3c0,0.1,0,0.2,0.1,0.3C21.1,13,21.1,13.1,21.3,13.1z"/>
<path d="M22.5,11.8h0.4c0.1,0,0.2,0,0.2-0.1c0.1-0.1,0.1-0.2,0.1-0.3c0-0.1,0-0.2-0.1-0.3c0,0-0.1,0-0.2,0h-0.4
	c-0.1,0-0.2,0-0.2,0.1c-0.1,0.1-0.1,0.2-0.1,0.3c0,0.1,0,0.2,0.1,0.3C22.3,11.8,22.4,11.8,22.5,11.8z"/>
</svg>
