<?xml version="1.0" encoding="utf-8"?>
<!-- Generator: Adobe Illustrator 27.2.0, SVG Export Plug-In . SVG Version: 6.00 Build 0)  -->
<svg version="1.1" id="Слой_1" xmlns="http://www.w3.org/2000/svg" xmlns:xlink="http://www.w3.org/1999/xlink" x="0px" y="0px"
	 viewBox="0 0 25 24" style="enable-background:new 0 0 25 24;" xml:space="preserve">
<path d="M0,0v20.9h8v1.4H6.6V24h11.9v-1.4H17v-1.4h8V0H0z M15.5,22.6h-6v-1.4h6V22.6L15.5,22.6z M23.5,19.4h-22v-3h22.1L23.5,19.4
	L23.5,19.4z M23.5,15h-22V1.4h22.1L23.5,15L23.5,15z"/>
<path d="M10,5.5l-1-1L5.3,8.4L9,12.2l1-1l-2.8-3L10,5.5z"/>
<path d="M16.1,4.6l-1,1l2.6,2.6L15,10.8l1,1l3.8-3.8L16.1,4.6z"/>
<path d="M12.6,3.7l-1.8,8.6l1.4,0.2L14,4L12.6,3.7z"/>
</svg>
