<svg width="25" height="25" viewBox="0 0 25 25" fill="none" xmlns="http://www.w3.org/2000/svg">
<g clip-path="url(#clip0_1_2)">
<path d="M2.92969 16.62L1.06509 16.1628C0.518604 17.3882 0 18.7647 0 20.3505C0 21.906 0.497607 23.2658 1.06509 24.5383L7.37305 22.9917V26.0417L9.57031 24.8206L11.7676 26.0417V22.9933L18.0263 24.539C18.5686 23.3233 19.0918 21.9431 19.0918 20.3505C19.0918 20.0761 19.0735 19.8028 19.0428 19.5365H25V0H2.92969V16.62ZM1.90088 22.6661C1.71035 22.1062 1.46484 21.2166 1.46484 20.3505C1.46484 19.4843 1.7104 18.5947 1.90088 18.0348L7.37305 19.3765V21.3245L1.90088 22.6661ZM10.3027 23.4074L9.57031 23.0004L8.83789 23.4074V19.5365H10.3027V23.4074ZM17.1913 22.6651L11.7676 21.3255V19.3754L17.1913 18.0358C17.3817 18.5959 17.627 19.4849 17.627 20.3505C17.627 21.2163 17.3817 22.1054 17.1913 22.6651ZM23.5352 1.62804V17.9085H18.7038C18.4637 17.0921 18.2701 16.7066 18.0263 16.1619L10.9548 17.9085H8.18535L4.39453 16.979V1.62804H23.5352Z" fill="#1E1E1E"/>
<path d="M8.83789 3.05176H19.0918V4.57763H8.83789V3.05176Z" fill="#1E1E1E"/>
<path d="M5.85938 9.15527H22.0703V10.6811H5.85938V9.15527Z" fill="#1E1E1E"/>
<path d="M8.83789 12.2071H19.0918V13.7329H8.83789V12.2071Z" fill="#1E1E1E"/>
<path d="M10.3027 6.10352H11.7676V7.6294H10.3027V6.10352Z" fill="#1E1E1E"/>
<path d="M13.2324 6.10352H14.6973V7.6294H13.2324V6.10352Z" fill="#1E1E1E"/>
<path d="M16.1621 6.10352H17.627V7.6294H16.1621V6.10352Z" fill="#1E1E1E"/>
</g>
<defs>
<clipPath id="clip0_1_2">
<rect width="25" height="25" fill="white"/>
</clipPath>
</defs>
</svg>
