<svg width="25" height="25" viewBox="0 0 25 25" fill="none" xmlns="http://www.w3.org/2000/svg">
<g clip-path="url(#clip0_1_24)">
<path d="M22.4386 18.9394L21.6066 19.4574L23.5655 22.2H1.434L3.76749 18.9333H16.471V18H3.5C3.41771 18 3.33667 18.0189 3.26411 18.0551C3.19154 18.0914 3.12967 18.1437 3.084 18.2076L0.0839937 22.4076C0.0293632 22.4844 0.0001536 22.5745 0 22.6666V24.0666C0 24.3141 0.105344 24.5515 0.29289 24.7265C0.480423 24.9016 0.734772 25 0.999989 25H24.0001C24.2653 25 24.5196 24.9016 24.7071 24.7265C24.8947 24.5515 25 24.3141 25 24.0666V22.6666C24.9999 22.5745 24.9707 22.4844 24.916 22.4076L22.4386 18.9394ZM0.999989 24.0666V23.1332H24.0001V24.0666H0.999989Z" fill="#1E1E1E"/>
<path d="M23.3695 0H1.63044C1.19841 0.000960549 0.784458 0.129203 0.47897 0.356719C0.173495 0.584235 0.00129391 0.892533 0 1.21428V11.7381C0.00129391 12.0599 0.173495 12.3681 0.47897 12.5957C0.784458 12.8232 1.19841 12.9514 1.63044 12.9523H9.23905V14.5715H7.06521C6.92107 14.5715 6.78283 14.6141 6.68092 14.69C6.57899 14.7659 6.52173 14.8689 6.52173 14.9762V16.5953C6.52173 16.7026 6.57899 16.8055 6.68092 16.8815C6.78283 16.9573 6.92107 17 7.06521 17H17.9347C18.079 17 18.2171 16.9573 18.3191 16.8815C18.421 16.8055 18.4783 16.7026 18.4783 16.5953V14.9762C18.4783 14.8689 18.421 14.7659 18.3191 14.69C18.2171 14.6141 18.079 14.5715 17.9347 14.5715H15.7609V12.9523H23.3695C23.8015 12.9514 24.2154 12.8232 24.521 12.5957C24.8265 12.3681 24.9986 12.0599 25 11.7381V1.21428C24.9986 0.892533 24.8265 0.584235 24.521 0.356719C24.2154 0.129203 23.8015 0.000960549 23.3695 0ZM17.3912 15.381V16.1904H7.6087V15.381H17.3912ZM10.3261 14.5715V12.9523H14.6739V14.5715H10.3261ZM23.913 11.7381C23.913 11.8455 23.8558 11.9484 23.7538 12.0243C23.652 12.1002 23.5137 12.1429 23.3695 12.1429H1.63044C1.4863 12.1429 1.34806 12.1002 1.24615 12.0243C1.14422 11.9484 1.08697 11.8455 1.08697 11.7381V10.5238H23.913V11.7381ZM23.913 9.71423H1.08697V1.21428C1.08697 1.10693 1.14422 1.00399 1.24615 0.928074C1.34806 0.852173 1.4863 0.809524 1.63044 0.809524H23.3695C23.5137 0.809524 23.652 0.852173 23.7538 0.928074C23.8558 1.00399 23.913 1.10693 23.913 1.21428V9.71423Z" fill="#1E1E1E"/>
<path d="M20 11H20.7812V11.7813H20V11Z" fill="#1E1E1E"/>
<path d="M9.39063 9.03125H10.9531C11.0567 9.03125 11.1561 8.9901 11.2294 8.91684C11.3026 8.84358 11.3438 8.74423 11.3438 8.64063V8.25H14.4688V8.64063C14.4688 8.74423 14.5099 8.84358 14.5831 8.91684C14.6564 8.9901 14.7558 9.03125 14.8594 9.03125H16.4219C16.5255 9.03125 16.6248 8.9901 16.698 8.91684C16.7713 8.84358 16.8125 8.74423 16.8125 8.64063V7.07813C16.8125 6.97452 16.7713 6.87517 16.698 6.80191C16.6248 6.72865 16.5255 6.6875 16.4219 6.6875H16.0312V4.34375H16.4219C16.5255 4.34375 16.6248 4.30259 16.698 4.22934C16.7713 4.15608 16.8125 4.05673 16.8125 3.95313V2.39063C16.8125 2.28702 16.7713 2.18767 16.698 2.11441C16.6248 2.04116 16.5255 2 16.4219 2H14.8594C14.7558 2 14.6564 2.04116 14.5831 2.11441C14.5099 2.18767 14.4688 2.28702 14.4688 2.39063V2.78125H11.3438V2.39063C11.3438 2.28702 11.3026 2.18767 11.2294 2.11441C11.1561 2.04116 11.0567 2 10.9531 2H9.39063C9.28702 2 9.18767 2.04116 9.11441 2.11441C9.04115 2.18767 9 2.28702 9 2.39063V3.95313C9 4.05673 9.04115 4.15608 9.11441 4.22934C9.18767 4.30259 9.28702 4.34375 9.39063 4.34375H9.78125V6.6875H9.39063C9.28702 6.6875 9.18767 6.72865 9.11441 6.80191C9.04115 6.87517 9 6.97452 9 7.07813V8.64063C9 8.74423 9.04115 8.84358 9.11441 8.91684C9.18767 8.9901 9.28702 9.03125 9.39063 9.03125ZM16.0312 8.25H15.25V7.46875H16.0312V8.25ZM15.25 2.78125H16.0312V3.5625H15.25V2.78125ZM9.78125 2.78125H10.5625V3.5625H9.78125V2.78125ZM10.5625 4.34375H10.9531C11.0567 4.34375 11.1561 4.30259 11.2294 4.22934C11.3026 4.15608 11.3438 4.05673 11.3438 3.95313V3.5625H14.4688V3.95313C14.4688 4.05673 14.5099 4.15608 14.5831 4.22934C14.6564 4.30259 14.7558 4.34375 14.8594 4.34375H15.25V6.6875H14.8594C14.7558 6.6875 14.6564 6.72865 14.5831 6.80191C14.5099 6.87517 14.4688 6.97452 14.4688 7.07813V7.46875H11.3438V7.07813C11.3438 6.97452 11.3026 6.87517 11.2294 6.80191C11.1561 6.72865 11.0567 6.6875 10.9531 6.6875H10.5625V4.34375ZM9.78125 7.46875H10.5625V8.25H9.78125V7.46875Z" fill="#1E1E1E"/>
<path d="M10 20H15.4687V20.7813H10V20Z" fill="#1E1E1E"/>
<path d="M23.8987 15.0871L22.9127 14.1011C22.8802 14.0686 22.8416 14.0429 22.7992 14.0256C22.7567 14.0082 22.7111 13.9996 22.6653 14C22.62 13.9996 22.5749 14.0083 22.533 14.0256C22.4911 14.043 22.4532 14.0687 22.4214 14.1011L17.7387 18.784C17.7005 18.8221 17.6718 18.8687 17.655 18.9199L17.4077 19.6585C17.3878 19.7198 17.3851 19.7853 17.3998 19.848C17.4146 19.9106 17.4462 19.9681 17.4913 20.014L17 20.5088L17.4913 21L17.986 20.5088C18.018 20.5409 18.0561 20.5663 18.0979 20.5837C18.1397 20.601 18.1846 20.6099 18.2299 20.6098C18.2677 20.6094 18.3053 20.6035 18.3414 20.5924L19.0801 20.345C19.1313 20.3282 19.1779 20.2995 19.216 20.2613L23.8987 15.5784C23.9636 15.5131 24 15.4248 24 15.3327C24 15.2407 23.9636 15.1524 23.8987 15.0871ZM18.7839 19.7108L18.3275 19.8607L18.1359 19.6725L18.2892 19.216L21.6792 15.8258L22.174 16.3171L18.7839 19.7108ZM22.6653 15.8258L22.174 15.3345L22.6653 14.8397L23.1601 15.3345L22.6653 15.8258Z" fill="#1E1E1E"/>
</g>
<defs>
<clipPath id="clip0_1_24">
<rect width="25" height="25" fill="white"/>
</clipPath>
</defs>
</svg>
