<svg width="25" height="25" viewBox="0 0 25 25" fill="none" xmlns="http://www.w3.org/2000/svg">
<g clip-path="url(#clip0_1_12)">
<path d="M22.5 3.75H11.25V4.58333H22.5V3.75Z" fill="#1E1E1E"/>
<path d="M18.3333 5.41663H11.25V6.24996H18.3333V5.41663Z" fill="#1E1E1E"/>
<path d="M18.3333 7.08337H11.25V7.91671H18.3333V7.08337Z" fill="#1E1E1E"/>
<path d="M22.5 2.08337H14.5833V2.91671H22.5V2.08337Z" fill="#1E1E1E"/>
<path d="M13.75 2.08337H12.9167V2.91671H13.75V2.08337Z" fill="#1E1E1E"/>
<path d="M12.9166 16.6666H12.0833V17.5H12.9166V16.6666Z" fill="#1E1E1E"/>
<path d="M6.96124 2.79461L6.37207 2.20544L5.53874 3.03878C5.37608 3.20149 5.37608 3.46524 5.53874 3.62794L6.37207 4.46128L6.96124 3.87211L6.42249 3.33336L6.96124 2.79461Z" fill="#1E1E1E"/>
<path d="M10.2946 3.03878L9.46124 2.20544L8.87207 2.79461L9.41082 3.33336L8.87207 3.87211L9.46124 4.46128L10.2946 3.62794C10.4572 3.46524 10.4572 3.20149 10.2946 3.03878Z" fill="#1E1E1E"/>
<path d="M7.93836 1.9511L7.10425 4.45106L7.89435 4.71468L8.72846 2.21472L7.93836 1.9511Z" fill="#1E1E1E"/>
<path d="M21.6667 12.9167V9.58333H20.8334V12.9167H20V8.75H19.1667V12.9167H18.3334V10.8333H17.5V12.9167H16.6667V10.4167H15.8334V12.9167H15V11.25H14.1667V12.9167H13.3334V13.75H22.5V12.9167H21.6667Z" fill="#1E1E1E"/>
<path d="M22.4138 0H2.5862C1.15846 0.00135417 0.00140069 1.11984 0 2.5V10.6775V10.6812V15.4167V16.6667C0.00140069 18.0468 1.15846 19.1653 2.5862 19.1667H7.92326L6.19913 22.5H3.87931C3.16513 22.5 2.5862 23.0596 2.5862 23.75C2.5862 24.4404 3.16513 25 3.87931 25H21.1207C21.8348 25 22.4138 24.4404 22.4138 23.75C22.4138 23.0596 21.8348 22.5 21.1207 22.5H18.8009L17.0767 19.1667H22.4138C23.8415 19.1653 24.9986 18.0468 25 16.6667V2.5C24.9986 1.11984 23.8415 0.00135417 22.4138 0ZM0.862067 5.8625L1.8418 6.99C1.9237 7.08432 2.04461 7.13875 2.17198 7.13875H3.49138C3.61874 7.13875 3.73965 7.08432 3.82154 6.99L4.80171 5.8625L5.76895 6.16625L5.87585 7.63417C5.88469 7.75693 5.94923 7.86964 6.05214 7.94208L7.11982 8.69208C7.2231 8.76417 7.35392 8.7887 7.47757 8.75917L8.95731 8.40375L9.55558 9.19917L8.74912 10.4492C8.68231 10.554 8.66685 10.6819 8.70688 10.7987L9.11507 12.0117C9.15435 12.1286 9.24502 12.2229 9.36291 12.2692L10.7759 12.8229V13.8062L9.36205 14.36C9.2439 14.406 9.15306 14.5006 9.1142 14.6179L8.98489 15H6.50171C7.46766 13.045 6.61119 10.7032 4.58878 9.76943C3.40091 9.22099 2.01158 9.26359 0.862067 9.88375V5.8625ZM0.862067 10.875C2.25625 9.82359 4.2682 10.0638 5.35581 11.4116C6.19557 12.4521 6.26039 13.8929 5.51723 15H0.862067V10.875ZM21.1207 23.3333C21.3587 23.3333 21.5517 23.5199 21.5517 23.75C21.5517 23.9801 21.3587 24.1667 21.1207 24.1667H3.87931C3.64126 24.1667 3.44827 23.9801 3.44827 23.75C3.44827 23.5199 3.64126 23.3333 3.87931 23.3333H21.1207ZM17.837 22.5H7.16291L8.88705 19.1667H16.1129L17.837 22.5ZM24.1379 16.6667C24.1379 17.5871 23.3659 18.3333 22.4138 18.3333H2.5862C1.634 18.3333 0.862067 17.5871 0.862067 16.6667V15.8333H5.74223H5.74611H24.1379V16.6667ZM24.1379 15H10.0237L11.369 14.4729C11.5315 14.4092 11.6378 14.2566 11.6379 14.0871V12.5417C11.6379 12.372 11.5316 12.2192 11.369 12.1554L9.87067 11.5696L9.58705 10.7258L10.4413 9.40083C10.534 9.25688 10.5272 9.07302 10.4242 8.93583L9.48446 7.68583C9.38128 7.54849 9.2023 7.48536 9.03188 7.52625L7.46464 7.90125L6.72413 7.38125L6.61076 5.82708C6.59843 5.65766 6.48091 5.5124 6.31378 5.46L4.79439 4.9825C4.6272 4.93104 4.44444 4.98182 4.33102 5.11125L3.29353 6.305H2.37414L1.3362 5.11125C1.22274 4.98167 1.03971 4.93083 0.872412 4.9825L0.862067 4.98625V2.5C0.862067 1.57953 1.634 0.833333 2.5862 0.833333H22.4138C23.3659 0.833333 24.1379 1.57953 24.1379 2.5V15Z" fill="#1E1E1E"/>
</g>
<defs>
<clipPath id="clip0_1_12">
<rect width="25" height="25" fill="white"/>
</clipPath>
</defs>
</svg>
