<svg width="25" height="25" viewBox="0 0 25 25" fill="none" xmlns="http://www.w3.org/2000/svg">
<g clip-path="url(#clip0_1_10)">
<path d="M21.6185 16.333L19.7647 15.9022L15.7314 13.8172V13.3394C16.8991 12.6423 17.7011 11.5767 17.85 10.3553C18.4356 10.2807 18.8844 9.87789 18.8844 9.39371V8.07999C18.8844 8.07491 18.8837 8.06993 18.8834 8.06486V6.4007C19.1168 6.26847 19.2648 6.05309 19.2648 5.81149V4.28854L22.0482 3.91329C22.5057 3.85162 22.8346 3.56407 22.867 3.19772C22.8992 2.83136 22.6239 2.51046 22.1817 2.39918L12.7982 0.0369751C12.6025 -0.0123413 12.3956 -0.0122925 12.1999 0.0369263L2.81634 2.39918C2.37417 2.51046 2.09877 2.83136 2.13103 3.19767C2.15151 3.43043 2.29205 3.63112 2.50897 3.76256V5.75411H2.48602C1.95762 5.75411 1.52773 6.09435 1.52773 6.51256V7.50113L0.90912 10.3748C0.802203 10.8718 1.28589 11.3267 1.92442 11.3267H4.01887C4.65598 11.3267 5.14133 10.8729 5.03417 10.3747L4.41557 7.50113V6.51256C4.41557 6.09435 3.98567 5.75411 3.45727 5.75411H3.43439V3.97858L5.7352 4.28873V5.81149C5.7352 6.05206 5.88258 6.2671 6.1148 6.39952L6.11567 8.08014V9.39371C6.11567 9.87794 6.56436 10.2807 7.15003 10.3553C7.29902 11.576 8.10005 12.6411 9.26668 13.3383V13.8183L5.23425 15.9029L3.38188 16.3332C1.39971 16.7937 0.00012381 18.2339 0.00012381 19.9082V20.9996C0.00012381 21.2018 0.207231 21.3658 0.462829 21.3658C0.718421 21.3658 0.925533 21.2019 0.925533 20.9996V19.9082C0.925533 18.5886 2.04275 17.4075 3.64254 17.0359L5.36849 16.635L12.2637 19.8778C12.4037 19.9436 12.589 19.9471 12.7365 19.8778L19.6322 16.6348L21.358 17.0358C22.9576 17.4074 24.0747 18.5885 24.0747 19.9079V23.4449C24.0747 23.8986 23.6084 24.2677 23.0351 24.2677H20.9957V22.6892C20.9957 22.4869 20.7887 22.323 20.533 22.323C20.2776 22.323 20.0704 22.4869 20.0704 22.6892V24.2677H4.92768V22.6892C4.92768 22.4869 4.72057 22.323 4.46498 22.323C4.20938 22.323 4.00228 22.4869 4.00228 22.6892V24.2677H1.96496C1.39175 24.2677 0.925406 23.8986 0.925406 23.4449V22.7114C0.925406 22.5092 0.718307 22.3452 0.462705 22.3452C0.207107 22.3452 0 22.5091 0 22.7114V23.4449C0 24.3024 0.881424 25 1.96489 25H23.035C24.1186 25 25 24.3024 25 23.4449V19.9079C25 18.2731 23.6481 16.8046 21.6185 16.333ZM4.0188 10.5943H1.92442C1.85971 10.5943 1.81034 10.5485 1.82132 10.4977L2.3809 7.8983H3.56233L4.1219 10.4977C4.13282 10.5484 4.08384 10.5943 4.0188 10.5943ZM3.49016 6.51256V7.16593H2.45302V6.51256C2.45302 6.49816 2.46776 6.48649 2.48596 6.48649H3.45714C3.47541 6.48644 3.49016 6.49816 3.49016 6.51256ZM10.8452 18.2213L11.0293 18.4453L6.3055 16.2237L9.30389 14.6737C9.43986 15.9364 9.96574 17.1515 10.8452 18.2213ZM10.842 16.6404C11.9311 16.7629 13.0683 16.763 14.1581 16.6404C13.9475 17.0505 13.6879 17.4462 13.3792 17.8219L12.5 18.8914L11.6208 17.8219C11.312 17.4462 11.0525 17.0505 10.842 16.6404ZM14.1548 18.2213C15.0343 17.1515 15.5602 15.9364 15.696 14.6737L18.6944 16.2237L13.9707 18.4453L14.1548 18.2213ZM16.8615 6.53707H17.958V7.71373H17.4137C17.1091 7.71373 16.8613 7.51764 16.8613 7.27657L16.8615 6.53707ZM3.09679 3.09713L12.4806 0.734827C12.4926 0.731799 12.5054 0.73175 12.5177 0.734876L21.9014 3.09713C21.9207 3.10201 21.9473 3.10865 21.944 3.14679C21.9406 3.18488 21.913 3.18854 21.8929 3.19127L18.7906 3.60948L17.6257 3.49547C17.3723 3.47062 17.1412 3.61329 17.1097 3.81398C17.0784 4.01471 17.2587 4.19752 17.5122 4.22233L18.3395 4.30333V5.8047L6.66055 5.80436V4.30328L11.4484 3.83439C12.1459 3.76617 12.8528 3.76617 13.5497 3.83439L15.3618 4.01178C15.6154 4.03663 15.8465 3.89401 15.8778 3.69332C15.9093 3.49259 15.7291 3.30978 15.4755 3.28492L13.6633 3.10753C12.8912 3.0319 12.1076 3.0319 11.3349 3.10753L6.20845 3.60958L3.10506 3.19127C3.08494 3.18854 3.05749 3.18488 3.0541 3.14679C3.05077 3.10865 3.07736 3.10197 3.09679 3.09713ZM7.04076 7.71373L7.04014 6.53707H8.13861V7.27662C8.13861 7.51764 7.89085 7.71378 7.5862 7.71378L7.04076 7.71373ZM8.05915 10.1671C8.03533 9.86886 7.72218 9.63527 7.34628 9.63527C7.17791 9.63527 7.04095 9.52687 7.04095 9.39366V8.44615H7.5862C8.401 8.44615 9.06396 7.9215 9.06396 7.27662V6.53707H15.936V7.27662C15.936 7.9215 16.5989 8.44615 17.4137 8.44615H17.9591V9.39366C17.9591 9.52687 17.8221 9.63527 17.6537 9.63527C17.2778 9.63527 16.9646 9.86886 16.9408 10.1671C16.7934 12.0162 14.8428 13.4647 12.4999 13.4647C10.1571 13.4647 8.20654 12.0162 8.05915 10.1671ZM12.5 14.197C13.3229 14.197 14.1052 14.0481 14.806 13.7833V14.0154C14.806 14.6415 14.6992 15.2591 14.4938 15.8548C13.2364 16.0446 11.8147 16.0523 10.5062 15.8548C10.3007 15.2592 10.194 14.6416 10.194 14.0154C10.194 14.0076 10.1926 14.0001 10.192 13.9924L10.192 13.9879V13.7826C10.8934 14.0478 11.6763 14.197 12.5 14.197Z" fill="#1E1E1E"/>
</g>
<defs>
<clipPath id="clip0_1_10">
<rect width="25" height="25" fill="white"/>
</clipPath>
</defs>
</svg>
